<?xml version="1.0" encoding="UTF-8" standalone="no"?>
<svg
   xmlns:dc="http://purl.org/dc/elements/1.1/"
   xmlns:cc="http://creativecommons.org/ns#"
   xmlns:rdf="http://www.w3.org/1999/02/22-rdf-syntax-ns#"
   xmlns:svg="http://www.w3.org/2000/svg"
   xmlns="http://www.w3.org/2000/svg"
   viewBox="0 0 1122.52 232.66667"
   height="232.66667"
   width="1122.52"
   xml:space="preserve"
   id="svg2"
   version="1.1"><metadata
     id="metadata8"><rdf:RDF><cc:Work
         rdf:about=""><dc:format>image/svg+xml</dc:format><dc:type
           rdf:resource="http://purl.org/dc/dcmitype/StillImage" /></cc:Work></rdf:RDF></metadata><defs
     id="defs6"><clipPath
       id="clipPath26"
       clipPathUnits="userSpaceOnUse"><path
         id="path24"
         d="M 0,174.5 H 841.89 V 0 H 0 Z" /></clipPath></defs><g
     transform="matrix(1.3333333,0,0,-1.3333333,0,232.66667)"
     id="g10"><g
       transform="translate(249.8193,123.9492)"
       id="g12"><path
         id="path14"
         style="fill:#ffffff;fill-opacity:1;fill-rule:nonzero;stroke:none"
         d="M 0,0 0.713,17.01 H -0.081 L -11.418,-14.307 -22.759,17.01 h -0.784 l 0.695,-17.018 v -27.123 l -11.35,0.008 v 60.898 h 15.436 l 7.514,-20.509 h 0.689 L -3.056,33.775 11.355,33.771 11.35,-27.123 0,-27.131 Z" /></g><g
       transform="translate(290.7549,145.0723)"
       id="g16"><path
         id="path18"
         style="fill:#ffffff;fill-opacity:1;fill-rule:nonzero;stroke:none"
         d="M 0,0 -0.702,-0.02 -6.644,-23.037 H 5.92 Z M 11.771,-48.246 7.925,-33.605 H -8.73 l -3.758,-14.641 h -13.258 l 16.495,60.894 18.497,0.004 16.487,-60.898 z" /></g><g
       id="g20"><g
         clip-path="url(#clipPath26)"
         id="g22"><g
           transform="translate(343.9648,129.5312)"
           id="g28"><path
             id="path30"
             style="fill:#ffffff;fill-opacity:1;fill-rule:nonzero;stroke:none"
             d="M 0,0 C 3.083,0 5.226,0.584 6.414,1.75 7.609,2.922 8.2,4.824 8.2,7.506 v 2.629 c 0,2.666 -0.591,4.586 -1.786,5.746 C 5.226,17.053 3.083,17.635 0,17.635 H -7.498 L -7.506,0 Z m -7.498,-32.705 h -12.908 l -0.006,60.894 H 3.145 c 2.961,0.004 5.612,-0.453 7.936,-1.357 2.329,-0.908 4.292,-2.197 5.899,-3.879 1.585,-1.685 2.796,-3.719 3.619,-6.103 0.815,-2.399 1.222,-5.071 1.222,-8.03 0,-4.31 -0.939,-8.006 -2.802,-11.084 -1.865,-3.076 -4.506,-5.117 -7.938,-6.117 L 23.036,-32.705 H 8.728 l -10.212,22.574 h -6.014 z" /></g><g
           transform="translate(393.7021,122.209)"
           id="g32"><path
             id="path34"
             style="fill:#ffffff;fill-opacity:1;fill-rule:nonzero;stroke:none"
             d="M 0,0 -5.422,-7.588 V -25.383 L -18.5,-25.391 V 35.512 H -5.422 V 10.018 l 0.706,0.011 6.628,10.123 10.737,15.364 H 27.304 L 9.072,9.77 28.174,-25.383 H 13.426 Z" /></g><g
           transform="translate(447.7881,106.3262)"
           id="g36"><path
             id="path38"
             style="fill:#ffffff;fill-opacity:1;fill-rule:nonzero;stroke:none"
             d="m 0,0 c 3.712,0 6.295,1.375 7.727,4.145 1.416,2.757 2.13,6.603 2.13,11.564 v 10.553 c 0,4.89 -0.716,8.701 -2.13,11.474 C 6.295,40.494 3.712,41.877 0,41.879 -3.724,41.877 -6.302,40.494 -7.719,37.736 -9.15,34.963 -9.854,31.152 -9.854,26.262 V 15.613 c 0,-4.884 0.704,-8.703 2.135,-11.47 C -6.302,1.381 -3.724,0 0,0 m 0,-10.555 c -8.141,0 -14.148,2.754 -18.009,8.284 -3.871,5.535 -5.807,13.255 -5.807,23.212 0,9.948 1.936,17.672 5.807,23.205 3.861,5.534 9.868,8.286 18.009,8.286 8.138,0 14.156,-2.752 18.019,-8.286 3.861,-5.533 5.804,-13.257 5.804,-23.205 0,-9.957 -1.943,-17.677 -5.804,-23.224 C 14.156,-7.801 8.149,-10.555 0,-10.555" /></g><g
           transform="translate(282.0127,56.0332)"
           id="g40"><path
             id="path42"
             style="fill:#ffffff;fill-opacity:1;fill-rule:nonzero;stroke:none"
             d="m 0,0 h -0.969 v -40.49 l -11.169,-0.008 V 20.416 H 3.579 L 17.448,-20.08 h 0.959 V 20.416 H 29.573 V -40.49 l -15.699,-0.008 z" /></g><g
           transform="translate(323.4541,15.543)"
           id="g44"><path
             id="path46"
             style="fill:#ffffff;fill-opacity:1;fill-rule:nonzero;stroke:none"
             d="M 0,0 V 9.686 H 13.077 V 51.219 H 0 v 9.687 H 39.257 V 51.219 H 26.177 V 9.686 h 13.08 v -9.694 z" /></g><g
           transform="translate(393.6865,40.9297)"
           id="g48"><path
             id="path50"
             style="fill:#ffffff;fill-opacity:1;fill-rule:nonzero;stroke:none"
             d="m 0,0 -5.412,-7.578 v -17.809 l -13.084,-0.008 V 35.52 h 13.09 l -0.009,-25.487 0.699,0.008 6.625,10.105 10.742,15.374 h 14.66 L 9.076,9.771 28.178,-25.387 13.426,-25.395 Z" /></g><g
           transform="translate(447.7881,25.0547)"
           id="g52"><path
             id="path54"
             style="fill:#ffffff;fill-opacity:1;fill-rule:nonzero;stroke:none"
             d="m 0,0 c 3.705,0 6.289,1.385 7.713,4.137 1.428,2.775 2.141,6.617 2.133,11.568 L 9.854,26.262 C 9.846,31.154 9.135,34.973 7.713,37.738 6.289,40.494 3.712,41.879 0,41.879 c -3.739,0 -6.307,-1.385 -7.73,-4.141 -1.432,-2.765 -2.145,-6.584 -2.14,-11.476 V 15.605 c 0,-4.88 0.708,-8.693 2.14,-11.468 C -6.307,1.385 -3.746,0 0,0 m 0,-10.568 c -8.162,0.019 -14.16,2.771 -18.016,8.304 -3.874,5.516 -5.803,13.248 -5.803,23.205 0,9.942 1.929,17.678 5.803,23.207 3.856,5.524 9.854,8.288 18.016,8.282 8.138,0 14.147,-2.758 18.009,-8.282 3.865,-5.529 5.803,-13.265 5.803,-23.207 0,-9.957 -1.938,-17.689 -5.803,-23.205 C 14.147,-7.789 8.138,-10.568 0,-10.568" /></g><g
           transform="translate(481.9766,15.5352)"
           id="g56"><path
             id="path58"
             style="fill:#ffffff;fill-opacity:1;fill-rule:nonzero;stroke:none"
             d="M 0,0 V 60.914 H 13.188 V 10.732 H 39.35 L 39.356,0 Z" /></g><g
           transform="translate(552.4824,63.7969)"
           id="g60"><path
             id="path62"
             style="fill:#ffffff;fill-opacity:1;fill-rule:nonzero;stroke:none"
             d="M 0,0 H -0.713 L -6.63,-23.037 H 5.926 Z m 11.766,-48.254 -3.82,14.647 H -8.733 l -3.757,-14.647 -13.257,-0.008 16.492,60.914 H 9.24 l 16.493,-60.914 z" /></g><g
           transform="translate(623.2295,76.4492)"
           id="g64"><path
             id="path66"
             style="fill:#ffffff;fill-opacity:1;fill-rule:nonzero;stroke:none"
             d="m 0,0 v -43.889 c 0,-2.74 -0.482,-5.228 -1.444,-7.468 -0.947,-2.241 -2.316,-4.143 -4.093,-5.715 -1.779,-1.573 -3.921,-2.77 -6.424,-3.629 -2.492,-0.836 -5.278,-1.262 -8.374,-1.242 -6.208,-0.02 -11.025,1.523 -14.426,4.617 -3.403,3.08 -5.576,7.156 -6.505,12.211 l 12.393,2.533 c 0.468,-2.611 1.353,-4.744 2.654,-6.369 1.31,-1.625 3.272,-2.444 5.884,-2.444 2.224,0 3.956,0.709 5.194,2.145 1.251,1.424 1.876,3.625 1.876,6.598 v 31.92 H -33.323 L -33.316,0 Z" /></g><g
           transform="translate(637.9785,15.543)"
           id="g68"><path
             id="path70"
             style="fill:#ffffff;fill-opacity:1;fill-rule:nonzero;stroke:none"
             d="M 0,0 V 60.906 H 38.914 V 50.174 H 13.091 L 13.094,36.211 38.05,36.209 V 25.473 H 13.094 L 13.091,10.725 H 38.914 V 0 Z" /></g><g
           transform="translate(700.2793,15.543)"
           id="g72"><path
             id="path74"
             style="fill:#ffffff;fill-opacity:1;fill-rule:nonzero;stroke:none"
             d="M 0,0 -16.151,60.906 H -1.587 L 5.57,29.922 9.153,12.389 h 0.704 l 3.673,17.533 7.225,30.984 H 34.628 L 18.488,0 Z" /></g><g
           transform="translate(742.2354,15.5352)"
           id="g76"><path
             id="path78"
             style="fill:#ffffff;fill-opacity:1;fill-rule:nonzero;stroke:none"
             d="M 0,0 V 9.693 H 13.097 V 51.219 L 0,51.227 v 9.687 H 39.266 L 39.262,51.219 26.178,51.227 V 9.693 H 39.262 V 0 Z" /></g><g
           transform="translate(816.6592,80.1133)"
           id="g80"><path
             id="path82"
             style="fill:#ffffff;fill-opacity:1;fill-rule:nonzero;stroke:none"
             d="m 0,0 -7.676,3.748 8.632,16.924 10.737,-5.324 z m -1.039,-65.627 c -8.148,0 -14.19,2.764 -18.108,8.252 -3.929,5.504 -5.894,13.252 -5.892,23.258 0,9.99 1.961,17.744 5.892,23.254 3.918,5.484 9.958,8.234 18.116,8.234 3.135,0 5.905,-0.412 8.314,-1.262 2.415,-0.845 4.493,-2.021 6.25,-3.527 1.736,-1.529 3.18,-3.348 4.317,-5.506 1.136,-2.15 2.021,-4.556 2.652,-7.236 L 8.297,-23.123 c -0.36,1.453 -0.749,2.793 -1.23,4.01 -0.466,1.22 -1.062,2.265 -1.786,3.134 -0.729,0.879 -1.627,1.563 -2.697,2.053 -1.092,0.492 -2.381,0.746 -3.896,0.746 -3.545,0 -6.061,-1.384 -7.544,-4.14 -1.478,-2.766 -2.223,-6.598 -2.223,-11.477 v -10.652 c 0,-4.885 0.745,-8.697 2.223,-11.473 1.483,-2.752 3.999,-4.137 7.558,-4.137 3.016,0 5.213,0.932 6.579,2.788 1.361,1.863 2.367,4.244 3.004,7.148 l 12.217,-2.959 c -0.631,-2.676 -1.516,-5.08 -2.652,-7.238 -1.137,-2.159 -2.581,-3.998 -4.317,-5.539 -1.757,-1.541 -3.835,-2.717 -6.25,-3.543 -2.409,-0.813 -5.179,-1.225 -8.322,-1.225" /></g><g
           transform="translate(88.4766,134.9316)"
           id="g84"><path
             id="path86"
             style="fill:#ffffff;fill-opacity:1;fill-rule:nonzero;stroke:none"
             d="m 0,0 -32.387,32.385 -48.414,-48.418 48.419,-48.406 16.135,16.132 -32.274,32.28 16.134,16.138 32.274,-32.275 32.273,32.275 80.691,-80.693 -16.137,-16.135 -64.554,64.547 -48.407,-48.412 48.407,-48.41 16.15,16.138 -32.284,32.272 16.134,16.143 64.554,-64.551 48.41,48.408 L 32.273,32.275 Z" /></g></g></g></g></svg>